<svg xmlns="http://www.w3.org/2000/svg" viewBox="0 0 280 85">
<title>nudeps</title>
<defs>
<style>
	:root {
		--color-stroke: #523431;
		--color-body: #eab67d;
		--color-body-highlight: #fce0b8;
	}

	.txt {
		filter: drop-shadow(2px 2.5px var(--color-stroke));
		stroke: var(--color-stroke);
		stroke-width: 8px;
		stroke-linejoin: round;
		stroke-linecap: round;
		paint-order: stroke fill;
		fill: var(--color-body);
	}

	#n, #u {
		fill: var(--color-body-highlight);
	}
</style>
</defs>

<g class="txt">
<path id="n" d="M 30,22 c3.15,0,5.73.6,7.76,1.8,2.03,1.2,3.55,3.07,4.56,5.6,1.01,2.53,1.52,5.72,1.52,9.56v16.8c0,2.35-.61,4.13-1.84,5.36-1.23,1.23-2.99,1.84-5.28,1.84s-4.05-.61-5.28-1.84c-1.23-1.23-1.84-3.01-1.84-5.36v-16.24c0-2.4-.41-4.11-1.24-5.12-.83-1.01-2.04-1.52-3.64-1.52-2.13,0-3.84.68-5.12,2.04-1.28,1.36-1.92,3.19-1.92,5.48v15.36c0,4.8-2.4,7.2-7.2,7.2-2.24,0-3.97-.61-5.2-1.84-1.23-1.23-1.84-3.01-1.84-5.36v-26.48c0-2.29.6-4.05,1.8-5.28,1.2-1.23,2.92-1.84,5.16-1.84s3.95.61,5.12,1.84c1.01,1.06,1.56,2.54,1.7,4.39,1.2-1.84,2.74-3.32,4.66-4.39,2.37-1.33,5.08-2,8.12-2Z"/>
<path id="u" d="M 82,22 c2.29,0,4.05.6,5.28,1.8,1.23,1.2,1.84,2.97,1.84,5.32v26.48c0,4.8-2.29,7.2-6.88,7.2-2.24,0-3.97-.61-5.2-1.84-.96-.96-1.54-2.26-1.75-3.9-1.02,1.57-2.26,2.85-3.73,3.82-2.11,1.39-4.6,2.08-7.48,2.08-3.41,0-6.21-.63-8.4-1.88-2.19-1.25-3.83-3.13-4.92-5.64-1.09-2.51-1.64-5.68-1.64-9.52v-16.8c0-2.35.61-4.12,1.84-5.32,1.23-1.2,2.99-1.8,5.28-1.8s4.05.6,5.28,1.8c1.23,1.2,1.84,2.97,1.84,5.32v17.2c0,1.92.4,3.36,1.2,4.32.8.96,2.05,1.44,3.76,1.44,1.92,0,3.49-.69,4.72-2.08,1.23-1.39,1.84-3.23,1.84-5.52v-15.36c0-2.35.61-4.12,1.84-5.32s2.99-1.8,5.28-1.8Z"/>
<path id="d" d="M 130.88,5 c2.24,0,3.99.61,5.24,1.84,1.25,1.23,1.88,3.01,1.88,5.36v43.44c0,2.35-.6,4.13-1.8,5.36s-2.95,1.84-5.24,1.84-3.97-.61-5.2-1.84c-1-1-1.59-2.38-1.77-4.12-.87,1.55-2.15,2.86-3.87,3.92-2.37,1.47-5.08,2.2-8.12,2.2-3.36,0-6.33-.83-8.92-2.48-2.59-1.65-4.61-4.03-6.08-7.12-1.47-3.09-2.2-6.75-2.2-10.96s.73-8,2.2-11.04,3.49-5.39,6.08-7.04c2.59-1.65,5.56-2.48,8.92-2.48,2.93,0,5.57.69,7.92,2.08,1.68.99,2.95,2.19,3.84,3.59v-15.35c0-2.35.61-4.13,1.84-5.36,1.23-1.23,2.99-1.84,5.28-1.84M116.56,51.52c1.44,0,2.72-.36,3.84-1.08,1.12-.72,1.99-1.81,2.6-3.28.61-1.47.92-3.37.92-5.72,0-3.57-.69-6.15-2.08-7.72-1.39-1.57-3.15-2.36-5.28-2.36-1.44,0-2.72.35-3.84,1.04-1.12.69-2,1.77-2.64,3.24-.64,1.47-.96,3.4-.96,5.8,0,3.52.69,6.08,2.08,7.68,1.39,1.6,3.17,2.4,5.36,2.4Z"/>
<path id="e" d="M 164,22 c2.93,0,5.6.47,8,1.4,2.4.93,4.45,2.29,6.16,4.08,1.71,1.79,3,3.93,3.88,6.44.88,2.51,1.32,5.31,1.32,8.4,0,1.07-.29,1.85-.88,2.36s-1.52.76-2.8.76h-22.76c.37,2.07,1.11,3.67,2.24,4.76,1.68,1.63,4.28,2.44,7.8,2.44,1.17,0,2.52-.15,4.04-.44,1.52-.29,2.97-.71,4.36-1.24.84-.32,1.61-.48,2.31-.48.46,0,.89.07,1.28.2,1.01.35,1.8.93,2.36,1.76.56.83.87,1.76.92,2.8.05,1.04-.19,2.05-.72,3.04-.53.99-1.41,1.75-2.64,2.28-1.87.85-3.85,1.49-5.96,1.92-2.11.43-4.23.64-6.36.64-4.8,0-8.95-.84-12.44-2.52-3.49-1.68-6.17-4.07-8.04-7.16-1.87-3.09-2.8-6.75-2.8-10.96s.89-7.61,2.68-10.68c1.79-3.07,4.24-5.47,7.36-7.2,3.12-1.73,6.68-2.6,10.68-2.6M156.37,37.6h14.82c-.08-1.5-.33-2.76-.76-3.76-.53-1.23-1.32-2.16-2.36-2.8s-2.33-.96-3.88-.96c-1.65,0-3.08.39-4.28,1.16-1.2.77-2.12,1.91-2.76,3.4-.37.86-.62,1.86-.77,2.96Z"/>
<path id="p" d="M 214 22 c 3.41 0 6.41 0.83 9 2.48 c 2.59 1.65 4.6 4 6.04 7.04 c 1.44 3.04 2.16 6.72 2.16 11.04 s -0.72 7.87 -2.16 10.96 c -1.44 3.09 -3.45 5.47 -6.04 7.12 c -2.59 1.65 -5.59 2.48 -9 2.48 c -2.93 0 -5.57 -0.69 -7.92 -2.08 c -1.63 -0.96 -2.88 -2.14 -3.76 -3.51 v 12.63 c 0 2.35 -0.63 4.13 -1.88 5.36 c -1.25 1.23 -3.03 1.84 -5.32 1.84 s -3.97 -0.61 -5.2 -1.84 c -1.23 -1.23 -1.84 -3.01 -1.84 -5.36 v -40.88 c 0 -2.29 0.6 -4.05 1.8 -5.28 c 1.2 -1.23 2.92 -1.84 5.16 -1.84 s 4.04 0.61 5.24 1.84 c 0.99 1.01 1.55 2.4 1.72 4.14 c 0.87 -1.56 2.15 -2.87 3.88 -3.94 c 2.37 -1.47 5.08 -2.2 8.12 -2.2 m -4.48 30.64 c 1.44 0 2.71 -0.36 3.8 -1.08 c 1.09 -0.72 1.96 -1.81 2.6 -3.28 c 0.64 -1.47 0.96 -3.37 0.96 -5.72 c 0 -3.57 -0.69 -6.15 -2.08 -7.72 c -1.39 -1.57 -3.15 -2.36 -5.28 -2.36 c -1.44 0 -2.72 0.35 -3.84 1.04 c -1.12 0.69 -2 1.77 -2.64 3.24 c -0.64 1.47 -0.96 3.4 -0.96 5.8 c 0 3.52 0.69 6.08 2.08 7.68 c 1.39 1.6 3.17 2.4 5.36 2.4 z"/>
<path id="s" d="M 254,22 c2.4,0,4.59.17,6.56.52,1.97.35,3.89.97,5.76,1.88,1.17.48,2,1.17,2.48,2.08.48.91.67,1.85.56,2.84-.11.99-.44,1.89-1,2.72-.56.83-1.32,1.39-2.28,1.68-.39.12-.81.18-1.25.18-.65,0-1.35-.13-2.11-.38-1.76-.69-3.32-1.2-4.68-1.52-1.36-.32-2.63-.48-3.8-.48-2.19,0-3.73.29-4.64.88-.91.59-1.36,1.33-1.36,2.24,0,.69.24,1.27.72,1.72.48.45,1.23.76,2.24.92l8.88,1.52c3.41.53,6.04,1.69,7.88,3.48,1.84,1.79,2.76,4.2,2.76,7.24,0,4.32-1.65,7.67-4.96,10.04-3.31,2.37-7.71,3.56-13.2,3.56-2.35,0-4.73-.17-7.16-.52-2.43-.35-4.63-.97-6.6-1.88-1.33-.53-2.28-1.25-2.84-2.16-.56-.91-.83-1.87-.8-2.88.03-1.01.32-1.93.88-2.76.56-.83,1.31-1.41,2.24-1.76.42-.16.86-.23,1.33-.23.57,0,1.19.12,1.83.35,2.24.8,4.25,1.37,6.04,1.72,1.79.35,3.51.52,5.16.52,1.97,0,3.39-.28,4.24-.84.85-.56,1.28-1.29,1.28-2.2,0-.8-.28-1.41-.84-1.84-.56-.43-1.35-.72-2.36-.88l-8.88-1.44c-3.31-.59-5.87-1.8-7.68-3.64-1.81-1.84-2.72-4.25-2.72-7.24,0-2.77.79-5.16,2.36-7.16,1.57-2,3.73-3.55,6.48-4.64,2.75-1.09,5.91-1.64,9.48-1.64Z"/>
</g>
</svg>
